<?xml version="1.0" standalone="no"?>
<!DOCTYPE svg PUBLIC "-//W3C//DTD SVG 20010904//EN"
 "http://www.w3.org/TR/2001/REC-SVG-20010904/DTD/svg10.dtd">
<svg version="1.0" xmlns="http://www.w3.org/2000/svg"
 width="661.000000pt" height="1280.000000pt" viewBox="0 0 661.000000 1280.000000"
 preserveAspectRatio="xMidYMid meet">
<metadata>
Created by potrace 1.15, written by Peter Selinger 2001-2017
</metadata>
<g transform="translate(0.000000,1280.000000) scale(0.100000,-0.100000)"
fill="#000000" stroke="none">
<path fill="#b3171d" d="M2687 12793 c-5 -4 -15 -22 -22 -40 -7 -17 -21 -34 -32 -37 -38 -12
-798 -126 -842 -126 -60 0 -118 -17 -281 -79 -176 -68 -375 -168 -453 -228
-34 -26 -102 -78 -152 -115 -133 -101 -204 -175 -254 -262 -51 -89 -91 -194
-91 -237 0 -66 51 -116 165 -163 33 -13 73 -31 89 -40 16 -8 32 -14 35 -12 88
38 101 57 166 236 70 194 87 225 179 315 94 93 300 240 334 238 12 0 22 3 22
9 0 5 24 20 54 33 30 13 57 29 61 35 4 7 17 9 29 6 25 -6 67 0 246 38 69 15
144 36 167 47 45 21 114 26 198 13 47 -7 49 -6 35 11 -14 16 -12 17 25 12 110
-17 213 -27 343 -36 123 -8 151 -13 197 -36 91 -44 271 -251 357 -410 l43 -80
0 -110 c0 -125 -19 -237 -44 -258 -12 -11 -62 -16 -202 -21 -103 -4 -224 -11
-270 -16 -46 -6 -118 -10 -160 -10 -75 0 -77 -1 -235 -81 -170 -87 -211 -114
-259 -168 -16 -19 -72 -65 -123 -103 -116 -86 -160 -131 -216 -222 -89 -142
-113 -291 -66 -410 34 -88 81 -164 200 -324 59 -78 133 -191 165 -250 78 -145
129 -222 208 -315 37 -43 67 -84 67 -92 0 -39 -45 -240 -75 -336 -71 -227
-106 -535 -87 -765 27 -314 86 -549 229 -904 85 -210 181 -394 272 -517 40
-54 166 -188 180 -191 13 -3 14 -1 4 9 -24 25 -13 30 17 9 16 -12 30 -30 30
-41 0 -36 19 -57 153 -173 149 -127 172 -152 228 -248 62 -106 54 -149 -67
-388 -38 -74 -79 -160 -91 -190 -12 -30 -55 -138 -97 -240 -41 -102 -87 -228
-101 -280 -15 -52 -53 -185 -85 -295 -91 -311 -94 -332 -145 -990 -14 -176
-32 -360 -39 -410 -25 -158 -47 -286 -76 -445 -29 -157 -52 -302 -115 -735
-52 -356 -112 -670 -171 -909 -28 -112 -45 -151 -71 -160 -10 -4 -110 -24
-223 -43 -197 -35 -215 -37 -460 -38 l-255 -2 -217 -81 c-120 -45 -267 -104
-328 -132 -85 -40 -141 -58 -247 -80 -165 -35 -208 -49 -271 -91 -113 -77
-149 -116 -197 -213 -64 -131 -73 -182 -50 -278 43 -183 110 -227 455 -298
235 -49 343 -56 507 -37 76 9 185 19 243 22 58 4 155 13 215 22 75 10 145 14
222 10 127 -7 145 -3 338 70 66 25 196 72 289 104 93 33 177 66 185 73 9 8 66
37 126 64 167 76 258 130 343 203 23 20 73 55 111 78 87 51 254 184 417 332
161 146 630 621 745 754 281 327 618 808 770 1100 66 127 389 836 448 981 21
55 85 205 141 334 210 485 334 841 450 1295 67 260 92 375 150 700 36 196 62
314 90 395 43 129 148 458 179 565 28 96 83 405 126 707 54 372 56 531 16 888
-66 580 -154 1000 -308 1475 -55 170 -55 170 -63 335 -5 131 -11 176 -28 218
-66 169 -211 295 -450 390 -57 22 -126 58 -155 78 -46 33 -62 38 -157 51 -160
21 -843 148 -866 161 -21 12 -144 163 -265 324 -65 86 -172 212 -238 280 -135
140 -426 413 -545 512 -79 65 -81 66 -290 135 -303 101 -506 148 -529 124z
m1788 -1983 c-3 -5 -15 -10 -26 -10 -11 0 -17 5 -14 10 3 6 15 10 26 10 11 0
17 -4 14 -10z m-931 -209 c36 -40 -7 -69 -74 -51 -51 14 -51 39 0 57 48 16 54
16 74 -6z m86 -26 c10 -12 10 -15 -3 -15 -23 0 -47 11 -47 21 0 15 37 10 50
-6z m915 -266 c4 -6 5 -12 2 -15 -7 -7 -37 7 -37 17 0 13 27 11 35 -2z m-207
-329 c34 -25 115 -36 166 -21 25 6 44 7 51 1 6 -5 38 -16 72 -23 86 -21 118
-38 116 -64 -3 -25 19 -33 92 -33 28 0 57 -5 65 -11 11 -8 -3 -9 -51 -6 -37 2
-72 1 -79 -3 -20 -13 6 -22 53 -18 35 2 42 0 45 -17 2 -11 15 -32 29 -47 l25
-26 -30 -16 c-42 -22 -85 -20 -107 4 -9 10 -43 27 -74 36 -30 9 -68 25 -82 35
-34 24 -111 39 -201 39 -95 0 -138 24 -138 77 0 13 9 15 45 11 57 -7 58 7 1
32 -48 20 -61 34 -52 55 7 20 22 19 54 -5z m-598 -75 c46 -24 36 -65 -15 -65
-20 0 -86 60 -79 71 8 14 62 11 94 -6z m1125 -25 c-3 -5 -13 -10 -21 -10 -8 0
-14 5 -14 10 0 6 9 10 21 10 11 0 17 -4 14 -10z m-1375 -59 c0 -14 -18 -23
-30 -16 -6 4 -8 11 -5 16 8 12 35 12 35 0z m-70 -10 c0 -12 -21 -19 -37 -13
-22 8 -14 22 12 22 14 0 25 -4 25 -9z m1498 -50 c3 -8 -1 -12 -9 -9 -7 2 -15
10 -17 17 -3 8 1 12 9 9 7 -2 15 -10 17 -17z m-1348 -95 c26 -15 30 -22 18
-24 -20 -4 -69 20 -89 44 -13 15 -12 16 11 9 14 -4 41 -17 60 -29z m1215 -10
c32 -23 12 -46 -42 -46 -93 0 -119 20 -60 45 41 18 78 19 102 1z m-2367 -68
c28 -81 42 -148 32 -148 -16 0 -59 105 -66 158 -9 71 7 66 34 -10z m1077 52
c-3 -5 -13 -10 -21 -10 -8 0 -14 5 -14 10 0 6 9 10 21 10 11 0 17 -4 14 -10z
m1130 -20 c0 -11 -14 -16 -49 -18 -56 -4 -96 4 -96 17 0 14 28 19 90 18 42 -2
55 -6 55 -17z m-1300 1 c6 -11 -29 -33 -39 -24 -7 7 12 33 25 33 4 0 10 -4 14
-9z m-51 -70 c3 -4 -3 -16 -14 -26 -19 -17 -20 -17 -20 2 0 29 22 45 34 24z
m1385 -20 c19 -12 7 -28 -41 -52 -44 -23 -65 -18 -29 7 21 15 21 17 5 35 -16
18 -16 19 17 19 19 0 40 -4 48 -9z m386 -40 c10 -17 -12 -21 -25 -6 -10 12
-10 15 3 15 9 0 18 -4 22 -9z m-344 -17 c12 -14 11 -16 -5 -13 -11 2 -21 10
-24 17 -5 17 13 15 29 -4z m92 9 c-7 -2 -21 -2 -30 0 -10 3 -4 5 12 5 17 0 24
-2 18 -5z m-1503 -23 c0 -5 -9 -10 -21 -10 -11 0 -17 5 -14 10 3 6 13 10 21
10 8 0 14 -4 14 -10z m130 -8 c0 -11 -51 -35 -58 -28 -2 3 -2 12 1 21 7 15 57
22 57 7z m193 -26 c8 -19 -1 -26 -35 -26 -15 0 -28 -3 -28 -6 0 -3 15 -25 34
-48 19 -23 40 -54 46 -70 5 -15 19 -30 30 -33 25 -7 25 -9 -5 -58 -30 -48 -31
-55 -6 -55 26 0 51 -10 51 -21 0 -12 -72 -11 -104 1 -15 5 -28 20 -32 35 -7
27 12 85 27 85 5 0 9 5 9 10 0 6 -7 10 -16 10 -12 0 -14 7 -9 29 5 25 1 33
-34 62 -46 36 -51 61 -19 83 28 20 84 21 91 2z m96 -62 c34 -28 42 -64 14 -64
-20 0 -83 58 -83 77 0 21 36 15 69 -13z m1026 -75 c-5 -14 0 -21 19 -29 15 -5
31 -21 38 -35 13 -29 21 -31 37 -11 14 16 1 51 -21 59 -7 2 -10 8 -5 12 11 13
61 -28 72 -59 11 -33 0 -54 -41 -78 -47 -27 -70 -27 -66 0 3 17 -2 22 -20 22
-36 0 -55 20 -68 68 -12 48 -8 62 21 62 10 0 19 5 19 11 0 5 5 7 10 4 6 -4 8
-15 5 -26z m-81 -45 c4 -10 -2 -14 -19 -14 -14 0 -25 3 -25 8 0 4 -3 18 -7 31
-6 23 -6 23 20 7 14 -10 28 -24 31 -32z m-1168 -62 c-9 -8 -26 10 -26 26 1 15
2 15 15 -2 8 -11 13 -21 11 -24z m1122 -8 c-10 -10 -28 6 -28 24 0 15 1 15 17
-1 9 -9 14 -19 11 -23z m-838 -54 c13 -9 13 -11 0 -20 -24 -16 -40 -12 -40 10
0 22 16 26 40 10z m-245 -80 c3 -6 -1 -13 -10 -16 -19 -8 -30 0 -20 15 8 14
22 14 30 1z m220 1 c-6 -6 -27 -17 -47 -26 -31 -12 -38 -13 -38 -2 0 8 10 19
23 25 28 14 75 16 62 3z m95 -7 c0 -24 -31 -71 -56 -84 -32 -18 -48 -4 -25 22
11 11 17 26 15 33 -6 14 32 45 53 45 7 0 13 -7 13 -16z m164 0 c22 -8 20 -21
-4 -27 -12 -3 -20 -14 -20 -25 0 -15 -15 -26 -67 -46 -37 -14 -69 -24 -71 -21
-9 9 31 45 50 45 30 0 58 19 58 38 0 18 18 42 31 42 4 0 14 -3 23 -6z m1341
-4 c-28 -12 -37 -12 -30 0 3 6 16 10 28 9 21 0 21 -1 2 -9z m-1695 -89 c0 -5
-9 -7 -20 -4 -11 3 -20 7 -20 9 0 2 9 4 20 4 11 0 20 -4 20 -9z m500 -91 c0
-5 -9 -10 -21 -10 -11 0 -17 5 -14 10 3 6 13 10 21 10 8 0 14 -4 14 -10z m180
-45 c0 -25 -3 -45 -6 -45 -3 0 -15 10 -26 23 -13 15 -21 18 -24 10 -6 -15 -84
-18 -84 -4 0 18 44 41 77 41 18 0 33 5 33 10 0 6 7 10 15 10 11 0 15 -12 15
-45z m-221 6 c10 -6 10 -10 1 -16 -14 -9 -60 2 -60 15 0 12 40 13 59 1z m-199
-40 c0 -24 -23 -43 -43 -35 -23 9 -28 32 -9 43 28 17 52 13 52 -8z m-164 -66
c-22 -16 -46 -20 -46 -7 0 15 13 22 39 22 25 -1 25 -1 7 -15z m1174 -95 c22
-11 51 -20 66 -20 15 0 38 -10 51 -22 20 -19 25 -20 33 -8 8 12 31 14 122 12
62 -2 121 -5 131 -8 33 -10 12 -27 -46 -39 -31 -6 -65 -19 -76 -29 -10 -10
-52 -24 -93 -33 -40 -8 -88 -21 -107 -29 -32 -13 -33 -16 -19 -31 15 -14 20
-14 57 1 23 9 55 16 71 16 19 0 30 5 30 14 0 10 16 15 55 18 40 2 54 0 51 -9
-3 -8 9 -15 32 -18 56 -10 62 -13 56 -28 -4 -12 -41 -16 -177 -19 -150 -4
-177 -3 -214 13 -24 10 -43 23 -43 30 0 6 7 9 15 5 18 -6 19 -1 5 24 -9 17 -4
23 32 46 41 26 40 47 -1 25 -11 -6 -37 -11 -57 -11 -38 0 -74 -22 -74 -47 0
-7 7 -13 15 -13 8 0 15 9 15 20 0 11 5 20 10 20 20 0 9 -33 -21 -61 -36 -34
-52 -36 -80 -10 -12 11 -37 22 -57 26 -34 7 -35 8 -14 16 12 5 22 13 22 19 0
6 15 -1 34 -15 29 -22 34 -23 40 -9 11 30 6 54 -11 54 -12 0 -3 14 30 48 37
37 45 50 35 60 -20 20 38 15 82 -8z m-445 -19 c45 -5 59 -10 58 -21 -6 -38
-36 -136 -46 -149 -9 -11 -3 -13 36 -10 93 8 32 -31 -84 -52 -129 -23 -150
-23 -156 0 -3 12 -9 21 -14 21 -15 0 -19 -18 -9 -46 13 -32 0 -49 -70 -94 -55
-35 -64 -36 -90 -10 -16 16 -20 33 -20 79 0 33 -5 63 -11 67 -8 4 -7 9 2 14 7
5 14 17 15 27 4 26 36 116 46 130 5 6 24 15 41 19 18 3 48 15 67 25 36 19 59
19 235 0z m1040 -61 c-3 -5 -17 -10 -31 -10 -13 0 -24 5 -24 10 0 6 14 10 31
10 17 0 28 -4 24 -10z m-875 -49 c0 -15 -82 -43 -93 -32 -13 13 0 31 17 25 8
-3 17 -1 21 5 8 13 55 15 55 2z m715 0 c7 -12 -31 -25 -45 -16 -6 4 -8 11 -5
16 8 12 42 12 50 0z m250 -41 c8 -13 -15 -13 -35 0 -12 8 -11 10 7 10 12 0 25
-4 28 -10z m-95 -20 c0 -12 -65 -24 -81 -14 -9 5 -7 10 7 15 28 11 74 11 74
-1z m66 -75 c36 -24 27 -49 -18 -53 -21 -2 -47 3 -60 10 -23 12 -22 13 12 19
38 6 28 14 -32 24 -21 3 -38 11 -38 17 0 16 106 3 136 -17z m-512 -31 c28 -11
17 -24 -18 -24 -47 0 -96 11 -96 21 0 10 90 12 114 3z m-1044 -29 c0 -8 -6
-15 -14 -15 -17 0 -28 14 -19 24 12 12 33 6 33 -9z m1406 -51 c65 -53 60 -68
-21 -61 -81 8 -121 26 -58 27 23 0 48 3 57 6 23 9 9 24 -23 24 -34 0 -44 9
-30 27 17 20 28 16 75 -23z m-1383 -19 c43 0 47 -7 12 -23 -36 -17 -65 -15
-87 5 -27 24 -23 36 10 27 15 -4 44 -8 65 -9z m411 -31 c31 -12 15 -34 -43
-64 -33 -16 -63 -36 -68 -43 -4 -7 -20 -20 -35 -30 -16 -10 -28 -24 -28 -32 0
-52 -77 -184 -99 -170 -22 13 -17 47 14 92 46 68 50 88 25 113 -38 38 4 73
100 83 25 3 59 11 75 18 l30 13 -45 4 c-31 2 -40 6 -30 13 17 10 80 12 104 3z
m89 -77 l29 -12 -21 -19 c-21 -19 -21 -19 -42 0 -20 18 -20 18 -13 -11 4 -17
12 -33 18 -37 6 -4 49 -8 96 -8 86 -1 93 -11 15 -24 -22 -4 -78 -18 -125 -32
-46 -13 -92 -24 -102 -24 -23 0 -23 30 -1 88 13 35 14 45 4 52 -16 10 -2 20
43 31 45 10 68 10 99 -4z m-434 -63 c22 -28 27 -59 12 -69 -14 -8 -51 44 -51
71 0 31 14 30 39 -2z m1346 -30 c13 -5 8 -12 -20 -31 -27 -18 -34 -28 -26 -36
19 -19 12 -26 -41 -42 -70 -21 -228 -32 -228 -16 0 6 7 11 16 11 28 0 82 31
87 50 12 46 149 88 212 64z m-1420 -35 c24 -37 -36 -89 -62 -53 -17 23 -16 29
3 48 18 18 50 21 59 5z m-208 -73 c-4 -9 -11 -16 -17 -16 -15 0 -24 26 -16 47
6 15 8 15 23 1 9 -9 13 -24 10 -32z m14 -48 c4 -43 -7 -57 -26 -32 -20 27 -18
44 5 44 11 0 21 -6 21 -12z m1583 -4 c22 -9 10 -24 -20 -24 -23 0 -31 10 -17
23 8 9 17 9 37 1z m-1324 -51 c0 -34 -47 -134 -51 -108 -7 50 17 145 36 145
11 0 15 -11 15 -37z m-210 -48 c7 -9 10 -18 7 -21 -9 -9 -45 6 -51 21 -7 20
28 20 44 0z m810 -67 c-32 -26 -21 -31 34 -17 26 6 49 9 52 7 5 -6 -67 -55
-101 -68 -18 -7 -27 -6 -32 4 -4 7 -15 15 -23 18 -11 4 -4 16 27 47 26 26 47
40 54 35 9 -5 5 -13 -11 -26z m-570 -59 c0 -41 -9 -52 -34 -43 -20 7 -22 65
-3 94 11 19 13 19 25 3 6 -9 12 -34 12 -54z m1225 41 l29 -30 -82 0 c-45 0
-84 5 -87 10 -9 15 12 38 38 43 55 11 74 6 102 -23z m-405 5 c19 -23 3 -32
-63 -38 l-57 -6 22 19 c13 11 17 19 10 20 -7 0 -10 5 -7 10 10 16 81 12 95 -5z
m-1236 -47 c21 -30 7 -47 -16 -19 -10 13 -18 27 -18 32 0 16 19 9 34 -13z
m1154 -110 c18 -18 14 -28 -12 -28 -25 0 -51 22 -39 33 10 11 38 8 51 -5z m2
-103 c-7 -8 -24 -15 -39 -15 l-26 1 25 14 c35 20 57 20 40 0z m565 -108 c27
-20 11 -34 -47 -42 -29 -4 -70 -14 -92 -21 -46 -17 -51 -14 -42 21 4 17 19 31
39 40 41 18 118 19 142 2z m-418 -18 c28 -11 28 -11 6 -20 -13 -4 -23 -12 -23
-17 0 -13 -47 -32 -78 -32 -39 0 -55 14 -47 39 12 38 84 53 142 30z m-27 -99
c0 -5 -15 -10 -32 -9 -31 1 -32 1 -8 9 35 11 40 11 40 0z m475 0 c4 -6 -5 -10
-20 -10 -15 0 -36 -11 -50 -26 -30 -32 -101 -45 -111 -20 -14 36 40 63 128 65
26 1 50 -3 53 -9z m-456 -84 c10 -12 8 -19 -8 -35 -12 -12 -26 -21 -32 -21 -5
0 -7 -4 -4 -10 3 -5 27 -10 53 -10 92 0 92 -30 0 -76 -58 -29 -68 -30 -68 -4
0 11 7 20 15 20 19 0 19 3 -5 42 -11 18 -20 50 -20 71 0 34 2 37 29 37 16 0
34 -6 40 -14z m399 -83 c-3 -25 -8 -28 -42 -31 -45 -4 -86 4 -86 17 0 14 63
41 98 41 30 0 33 -2 30 -27z m-204 -32 c16 -17 14 -19 -36 -44 -60 -29 -197
-71 -206 -63 -3 3 20 17 51 31 32 13 57 29 57 35 0 5 8 10 18 10 10 0 33 11
52 25 43 29 43 29 64 6z m234 -88 c3 -10 -18 -13 -84 -13 -82 0 -102 10 -49
23 38 10 128 2 133 -10z m-218 -23 c0 -8 -94 -40 -165 -55 l-30 -7 25 21 c46
38 170 68 170 41z m300 -40 c0 -19 -45 -33 -129 -37 -100 -6 -102 8 -6 31 71
17 135 20 135 6z m-457 -97 c-7 -2 -19 -2 -25 0 -7 3 -2 5 12 5 14 0 19 -2 13
-5z m385 -34 c-15 -44 -41 -56 -153 -74 -55 -8 -115 -17 -132 -20 l-33 -6 0
44 c0 32 -5 47 -16 51 -49 19 40 33 213 35 l132 1 -11 -31z m-10 -116 c-10 -2
-26 -2 -35 0 -10 3 -2 5 17 5 19 0 27 -2 18 -5z m-2 -98 c4 -8 1 -22 -6 -30
-10 -12 -9 -15 8 -15 12 0 23 -4 26 -9 10 -15 -17 -29 -82 -42 -49 -10 -67
-11 -82 -1 -23 14 -33 15 -26 3 11 -17 -6 -40 -37 -51 -62 -21 -138 -74 -134
-92 6 -20 -12 -28 -64 -28 -39 0 -40 1 -25 21 8 12 35 33 60 48 25 14 56 43
70 64 l25 37 -41 27 -41 28 154 26 c188 33 188 33 195 14z m-391 -109 c28 -20
12 -46 -29 -46 -43 0 -54 15 -30 41 20 23 34 24 59 5z m409 -45 c3 -5 -5 -42
-19 -83 -14 -40 -25 -74 -25 -75 0 -2 -39 -3 -87 -3 -95 0 -97 -8 -8 -34 68
-20 89 -37 81 -64 -5 -14 -20 -25 -44 -31 -102 -27 -371 -41 -401 -22 -13 8
-13 12 -1 26 24 29 53 33 130 19 41 -7 105 -13 142 -13 101 -1 118 11 76 56
-12 13 -33 23 -49 23 -64 0 -41 51 39 87 36 16 73 44 100 74 44 49 56 57 66
40z m-114 -36 c-20 -24 -79 -57 -93 -52 -6 3 7 13 30 23 24 11 43 25 43 32 0
6 7 12 16 12 13 0 14 -3 4 -15z m-232 -152 c-4 -20 -61 -29 -107 -18 -25 6
-25 7 -7 21 11 8 42 14 69 14 41 0 48 -3 45 -17z m370 -275 c4 -21 -34 -34
-53 -18 -8 7 -33 10 -55 8 -53 -5 -51 8 3 21 60 13 101 9 105 -11z m-94 -54
c5 -14 16 -15 59 -10 33 4 47 3 37 -3 -27 -17 -137 -41 -185 -41 -40 0 -46 2
-36 14 14 16 90 56 107 56 7 0 15 -7 18 -16z m-388 -30 c41 -19 64 -49 64 -81
0 -18 -6 -23 -25 -23 -14 0 -29 -8 -35 -20 -13 -24 -60 -50 -90 -50 -19 0 -21
4 -15 30 4 19 3 30 -4 30 -6 0 -11 7 -11 15 0 17 30 35 59 35 41 0 31 21 -23
46 -31 14 -56 27 -56 30 0 11 106 2 136 -12z m474 -23 c0 -17 -74 -71 -110
-81 -65 -18 -169 -7 -178 18 -3 10 9 12 56 6 69 -7 158 14 187 46 19 21 45 27
45 11z m-200 -210 c0 -12 -26 -21 -58 -21 l-27 1 25 14 c28 16 60 19 60 6z
m-300 -83 c0 -5 -7 -8 -15 -8 -15 0 -20 21 -8 33 7 7 23 -11 23 -25z m395 12
c7 -22 -1 -81 -17 -123 -10 -25 -15 -27 -57 -27 -25 0 -70 -2 -99 -6 -58 -7
-91 8 -62 26 8 6 21 8 28 5 28 -10 10 16 -20 29 l-33 14 35 3 c60 4 84 -2 108
-24 l24 -22 19 24 c33 40 21 54 -58 71 -40 8 -75 18 -79 23 -4 4 24 7 62 7 38
0 76 5 84 10 25 16 58 11 65 -10z m-465 -70 c-8 -5 -37 -10 -65 -10 -36 0 -46
3 -35 10 8 5 38 10 65 10 36 0 46 -3 35 -10z m-10 -65 c0 -12 -62 -35 -94 -35
-60 0 -92 24 -43 33 32 6 137 8 137 2z m-160 -200 c0 -21 -5 -25 -30 -25 -36
0 -38 13 -8 34 31 22 38 20 38 -9z m445 -15 c4 -6 -10 -10 -34 -10 -23 0 -41
5 -41 10 0 6 15 10 34 10 19 0 38 -4 41 -10z m-538 -31 c53 -20 22 -44 -48
-37 -24 2 -35 9 -37 22 -7 35 19 40 85 15z m193 -59 c0 -5 -13 -10 -30 -10
-16 0 -30 5 -30 10 0 6 14 10 30 10 17 0 30 -4 30 -10z m-243 -41 c-31 -6 -54
-6 -65 0 -12 8 0 10 48 10 l65 -1 -48 -9z m46 -56 c-7 -2 -19 -2 -25 0 -7 3
-2 5 12 5 14 0 19 -2 13 -5z m17 -92 c54 -7 54 -7 21 -15 -38 -9 -138 1 -146
15 -7 10 43 10 125 0z m-5 -58 c-40 -27 -113 -41 -159 -29 -28 7 -31 13 -17
35 7 11 13 11 32 -3 30 -20 63 -20 119 4 64 26 70 24 25 -7z m-518 -9 c-9 -9
-28 6 -21 18 4 6 10 6 17 -1 6 -6 8 -13 4 -17z m962 13 c19 -7 37 -18 39 -26
4 -11 -11 -12 -79 -6 -46 4 -86 9 -89 12 -3 3 4 11 14 19 24 17 68 17 115 1z
m-1434 -77 c-3 -5 -13 -10 -21 -10 -8 0 -12 5 -9 10 3 6 13 10 21 10 8 0 12
-4 9 -10z m795 -50 c0 -5 -7 -10 -15 -10 -8 0 -15 5 -15 10 0 6 7 10 15 10 8
0 15 -4 15 -10z m-31 -34 c48 -13 67 -36 31 -36 -29 0 -120 40 -120 52 0 6 10
7 23 3 12 -3 42 -12 66 -19z m593 -18 c-8 -10 0 -12 36 -11 35 2 42 1 27 -6
-26 -13 -92 -13 -100 -2 -3 5 5 17 17 25 24 17 37 13 20 -6z m-714 -66 c-28
-5 -48 5 -48 22 0 14 5 13 34 -2 28 -14 30 -18 14 -20z m652 -7 c0 -2 -9 -9
-20 -15 -22 -12 -44 -5 -35 11 6 9 55 13 55 4z m-477 -52 c-7 -2 -21 -2 -30 0
-10 3 -4 5 12 5 17 0 24 -2 18 -5z m107 -12 c0 -5 -6 -11 -12 -14 -18 -6 -39
3 -32 14 7 12 44 12 44 0z m-170 -60 c0 -5 -10 -13 -22 -16 -13 -4 -33 -17
-45 -28 -18 -16 -23 -17 -23 -5 0 25 35 50 83 57 4 0 7 -3 7 -8z m-605 -81
c-3 -5 -13 -10 -21 -10 -8 0 -14 5 -14 10 0 6 9 10 21 10 11 0 17 -4 14 -10z
m165 -58 c0 -34 -14 -57 -29 -48 -14 9 -14 41 0 67 13 25 29 15 29 -19z m-306
-11 c12 -13 14 -21 6 -26 -12 -8 -60 20 -60 35 0 17 36 11 54 -9z m-84 -41 c0
-11 -4 -20 -10 -20 -5 0 -10 9 -10 20 0 11 5 20 10 20 6 0 10 -9 10 -20z m308
-13 c4 -31 -12 -36 -28 -8 -15 29 -12 43 8 39 10 -2 18 -14 20 -31z m447 13
c-3 -5 -13 -10 -21 -10 -8 0 -12 5 -9 10 3 6 13 10 21 10 8 0 12 -4 9 -10z
m-815 -47 c0 -35 -3 -44 -10 -33 -13 20 -13 80 0 80 6 0 10 -21 10 -47z m99
-2 c22 -14 4 -33 -20 -21 -11 6 -17 15 -14 21 8 11 16 11 34 0z m606 -151 c-3
-5 -13 -10 -21 -10 -8 0 -12 5 -9 10 3 6 13 10 21 10 8 0 12 -4 9 -10z m-855
-51 c0 -6 -4 -7 -10 -4 -5 3 -10 11 -10 16 0 6 5 7 10 4 6 -3 10 -11 10 -16z
m105 -60 c7 -21 -1 -39 -16 -39 -5 0 -9 8 -9 18 0 10 -7 28 -16 40 -15 22 -15
22 10 11 14 -7 28 -20 31 -30z m603 25 c32 -22 27 -30 -18 -26 -37 4 -51 18
-33 35 10 11 27 8 51 -9z m-680 -114 c-9 -6 -58 -12 -110 -15 -105 -6 -107 0
-3 14 102 12 134 13 113 1z m247 -150 c21 -42 22 -50 10 -60 -12 -10 -18 -10
-30 0 -8 6 -23 9 -35 5 -23 -7 -25 5 -9 56 6 19 13 40 15 47 6 21 22 5 49 -48z
m135 40 c0 -5 -7 -10 -16 -10 -8 0 -12 5 -9 10 3 6 10 10 16 10 5 0 9 -4 9
-10z m110 -35 c7 -9 11 -18 8 -21 -9 -9 -59 16 -53 26 9 15 31 12 45 -5z
m-650 -85 l25 -7 -25 -10 c-36 -14 -170 -24 -170 -12 0 5 15 18 32 29 32 19
69 19 138 0z m366 -55 c19 -30 8 -58 -13 -30 -12 18 -18 55 -8 55 2 0 12 -11
21 -25z m1011 9 c8 -20 -9 -31 -64 -39 -80 -12 -104 12 -39 41 43 19 95 18
103 -2z m-717 -24 c0 -5 -7 -10 -15 -10 -8 0 -15 5 -15 10 0 6 7 10 15 10 8 0
15 -4 15 -10z m-795 -60 c-3 -5 -13 -10 -21 -10 -8 0 -12 5 -9 10 3 6 13 10
21 10 8 0 12 -4 9 -10z m580 -40 c0 -17 -69 -53 -93 -48 -32 6 -19 42 18 55
44 15 75 12 75 -7z m-570 -20 c3 -5 -3 -10 -14 -10 -12 0 -21 5 -21 10 0 6 6
10 14 10 8 0 18 -4 21 -10z m55 -40 c0 -12 -28 -25 -36 -17 -9 9 6 27 22 27 8
0 14 -5 14 -10z m-20 -60 c-20 -13 -93 -13 -85 0 3 6 27 10 53 10 34 0 43 -3
32 -10z m520 -24 c0 -12 -14 -35 -31 -52 -30 -28 -31 -28 -45 -10 -19 26 -18
73 2 84 8 4 28 6 45 4 22 -3 29 -10 29 -26z m-607 -43 c-7 -2 -19 -2 -25 0 -7
3 -2 5 12 5 14 0 19 -2 13 -5z m137 -2 c38 -10 7 -24 -38 -16 -58 9 -75 25
-27 24 22 -1 51 -4 65 -8z m-85 -71 c3 -6 -1 -13 -9 -16 -21 -8 -66 3 -66 16
0 13 67 13 75 0z m-50 -120 c-3 -5 -11 -10 -16 -10 -6 0 -7 5 -4 10 3 6 11 10
16 10 6 0 7 -4 4 -10z m-45 -80 c13 -9 13 -11 0 -20 -20 -13 -80 -13 -80 0 0
10 34 28 55 29 6 0 17 -4 25 -9z"/>
<path fill="#530505" d="M4420 9901 c0 -19 60 -27 108 -15 43 12 21 24 -43 24 -36 0 -65 -4
-65 -9z"/>
</g>
</svg>
