<?xml version="1.0" standalone="no"?>
<!DOCTYPE svg PUBLIC "-//W3C//DTD SVG 20010904//EN"
 "http://www.w3.org/TR/2001/REC-SVG-20010904/DTD/svg10.dtd">
<svg version="1.0" xmlns="http://www.w3.org/2000/svg"
 width="860.000000pt" height="1280.000000pt" viewBox="0 0 860.000000 1280.000000"
 preserveAspectRatio="xMidYMid meet">
<metadata>
Created by potrace 1.15, written by Peter Selinger 2001-2017
</metadata>
<g transform="translate(0.000000,1280.000000) scale(0.100000,-0.100000)"
fill="#000000" stroke="none">
<path fill="#530505" d="M7600 12645 c-140 -85 -259 -156 -265 -158 -5 -2 13 -30 41 -63 27
-32 79 -97 113 -144 127 -170 229 -254 346 -285 72 -18 179 -19 263 -1 49 11
62 11 62 1 0 -19 -66 -390 -101 -565 -249 -1261 -576 -1880 -993 -1880 -90 0
-108 5 -356 100 -260 99 -409 145 -542 164 -177 27 -305 17 -455 -34 -169 -58
-303 -149 -466 -320 -94 -98 -105 -114 -112 -155 -5 -34 -10 -45 -21 -41 -9 4
-24 -16 -47 -67 -45 -95 -115 -190 -488 -658 -386 -486 -584 -739 -799 -1024
-1493 -1975 -2624 -4033 -3375 -6140 -176 -496 -405 -1215 -405 -1275 0 -16
15 -28 63 -50 115 -54 218 -62 377 -30 336 68 803 326 1394 768 1341 1003
3407 3007 5745 5570 157 172 288 308 291 302 7 -11 208 206 307 332 125 159
188 243 188 253 0 6 17 39 37 75 276 486 259 943 -50 1332 -102 128 -285 300
-419 393 -24 17 -43 33 -43 38 0 4 15 38 34 75 62 124 193 435 269 642 210
571 336 1118 377 1635 12 149 15 568 5 663 -3 31 -13 117 -22 191 l-16 135
-62 80 c-136 178 -298 262 -560 290 l-60 6 -255 -155z"/>
</g>
</svg>
