<?xml version="1.0" standalone="no"?>
<!DOCTYPE svg PUBLIC "-//W3C//DTD SVG 20010904//EN"
 "http://www.w3.org/TR/2001/REC-SVG-20010904/DTD/svg10.dtd">
<svg version="1.0" xmlns="http://www.w3.org/2000/svg"
 width="904.000000pt" height="1280.000000pt" viewBox="0 0 904.000000 1280.000000"
 preserveAspectRatio="xMidYMid meet">
<metadata>
Created by potrace 1.15, written by Peter Selinger 2001-2017
</metadata>
<g transform="translate(0.000000,1280.000000) scale(0.100000,-0.100000)"
fill="#000000" stroke="none">
<path fill="#530505" d="M8805 12783 c-82 -33 -167 -107 -408 -353 -256 -260 -449 -474 -544
-602 -73 -98 -229 -344 -473 -748 -355 -587 -376 -614 -663 -866 l-217 -190
-68 -11 c-38 -6 -105 -27 -151 -47 -45 -20 -87 -36 -94 -36 -16 0 -196 -182
-236 -239 -31 -44 -39 -76 -22 -83 5 -1 -8 -55 -30 -118 -22 -63 -71 -229
-110 -370 -184 -669 -257 -879 -574 -1650 -196 -474 -255 -606 -387 -855 -235
-441 -460 -815 -1043 -1725 -254 -398 -339 -535 -496 -803 -126 -216 -338
-474 -654 -796 -245 -250 -469 -458 -1000 -931 -703 -625 -940 -846 -1159
-1078 -308 -328 -405 -470 -456 -666 -56 -219 13 -496 147 -586 49 -33 138
-35 180 -4 56 42 68 77 70 210 2 67 7 133 12 145 37 98 236 281 481 444 345
229 655 381 930 455 139 38 223 77 366 171 309 203 705 525 1299 1057 219 196
1070 1040 1390 1379 522 553 964 1130 1337 1748 63 105 209 343 325 530 529
858 700 1167 747 1357 13 51 34 179 45 283 30 266 46 344 96 470 77 197 101
375 91 690 -3 116 -12 257 -21 315 -8 58 -19 146 -25 197 -12 111 -35 177 -88
246 -79 105 -77 95 -77 357 0 217 2 238 21 275 28 56 509 891 607 1055 44 74
94 153 111 175 104 138 469 572 630 749 l89 98 51 -7 c28 -3 67 -9 87 -12 75
-11 109 37 115 161 5 96 -16 168 -58 199 -37 27 -121 32 -173 10z"/>
</g>
</svg>
