<?xml version="1.0" standalone="no"?>
<!DOCTYPE svg PUBLIC "-//W3C//DTD SVG 20010904//EN"
 "http://www.w3.org/TR/2001/REC-SVG-20010904/DTD/svg10.dtd">
<svg version="1.0" xmlns="http://www.w3.org/2000/svg"
 width="1204.000000pt" height="1280.000000pt" viewBox="0 0 1204.000000 1280.000000"
 preserveAspectRatio="xMidYMid meet">
<metadata>
Created by potrace 1.15, written by Peter Selinger 2001-2017
</metadata>
<g transform="translate(0.000000,1280.000000) scale(0.100000,-0.100000)"
fill="#000000" stroke="none">
<path fill="#530505" d="M10348 12784 c-32 -17 -49 -45 -58 -94 -6 -30 -480 -822 -514 -857
-8 -8 -35 -2 -111 28 -116 45 -257 73 -333 66 -104 -11 -182 -63 -213 -143
-21 -56 -13 -166 21 -263 l31 -91 -132 -148 c-72 -81 -152 -167 -178 -192 -26
-25 -378 -416 -782 -870 -1076 -1210 -1155 -1298 -1209 -1344 -139 -119 -460
-264 -700 -317 -162 -35 -305 -43 -545 -30 -121 7 -231 14 -245 16 -47 7 -295
-16 -395 -36 -330 -69 -617 -226 -884 -484 -85 -82 -2590 -2870 -3751 -4175
-36 -41 -119 -145 -183 -230 -147 -197 -161 -236 -162 -465 0 -230 45 -401
180 -681 228 -474 571 -915 995 -1279 58 -49 159 -139 225 -200 168 -155 243
-219 370 -315 284 -216 616 -403 935 -528 447 -174 804 -197 1076 -68 143 68
245 146 296 226 16 25 113 139 217 255 103 116 531 595 951 1065 420 470 1127
1260 1570 1755 443 495 821 920 840 945 19 25 76 90 125 145 115 126 175 200
220 270 19 31 35 57 35 59 0 2 23 43 51 91 154 262 220 540 206 870 -6 138
-17 223 -57 440 -30 159 -37 407 -16 562 38 285 108 468 277 721 87 128 195
253 1005 1160 500 559 935 1043 967 1076 32 34 101 109 154 167 l95 105 81
-24 c99 -29 251 -40 317 -22 58 16 133 89 149 145 26 94 4 206 -70 364 -27 57
-48 105 -47 106 2 1 182 145 401 319 219 174 413 324 432 333 60 28 70 95 31
206 -75 212 -323 515 -678 829 -252 223 -413 336 -643 451 -179 89 -286 114
-347 81z"/>
</g>
</svg>
